<svg width="128" height="56" viewBox="0 0 128 56" fill="none" xmlns="http://www.w3.org/2000/svg">
<path d="M50.8739 29.6457C51.7031 28.4957 52.1696 27.1193 52.1696 25.6906C52.1696 25.6383 52.1696 25.586 52.1696 25.5338C52.1178 23.774 51.4095 22.1362 50.1656 20.8991C48.9217 19.6795 47.2805 19 45.5356 19C43.9289 19 42.3914 19.5924 41.1821 20.6552C40.9229 20.8817 40.9057 21.2825 41.1475 21.5264L42.1841 22.5718L40.5601 24.2096C40.3355 24.4361 40.3355 24.8194 40.5601 25.0459L41.0957 25.586C40.2492 26.7185 39.8 28.1124 39.8 29.5411C39.8 31.3009 40.4738 32.9561 41.6831 34.2106C42.8924 35.4651 44.5336 36.1794 46.2612 36.2143C46.313 36.2143 46.3649 36.2143 46.434 36.2143C48.0406 36.2143 49.5782 35.6219 50.7875 34.5591C51.0467 34.3326 51.0639 33.9318 50.8221 33.6879L49.7855 32.6425L51.4095 31.0047C51.634 30.7782 51.634 30.3949 51.4095 30.1684L50.8739 29.6457ZM48.5244 33.0781L49.5091 34.0712C48.6108 34.6985 47.5396 35.0295 46.434 35.0295C46.3994 35.0295 46.3476 35.0295 46.2958 35.0295C44.8618 34.9947 43.5316 34.4022 42.5296 33.3743C41.5276 32.3463 40.9748 30.9698 40.9748 29.5237C40.9748 28.4086 41.303 27.3284 41.9249 26.4223L46.4685 31.0047L47.0214 31.5623L47.3323 31.8759L48.1616 31.0395L47.8506 30.7259L41.8558 24.6626L41.8213 24.6277L43.4452 22.9899C43.6698 22.7635 43.6698 22.3801 43.4452 22.1536L42.4605 21.1605C43.3588 20.5333 44.43 20.2022 45.5356 20.2022C46.9695 20.2022 48.3171 20.7598 49.3536 21.7703C50.3729 22.7809 50.9603 24.1225 50.9948 25.5686C50.9948 25.6035 50.9948 25.6557 50.9948 25.6906C50.9948 26.8057 50.6666 27.8859 50.0447 28.7919L47.5742 26.3178L44.931 23.652L44.62 23.3384L43.7735 24.1747L47.2459 27.6768L50.1483 30.604L48.5244 32.2418C48.2998 32.4683 48.2998 32.8342 48.5244 33.0781Z" fill="white"/>
<path d="M56.9723 27.6245C56.9723 24.5057 58.9418 22.4324 61.896 22.4324C64.8502 22.4324 66.8195 24.5057 66.8195 27.6245C66.8195 30.7433 64.8502 32.8167 61.896 32.8167C58.9418 32.8167 56.9723 30.7259 56.9723 27.6245ZM64.5565 27.6245C64.5565 25.6208 63.4853 24.2967 61.896 24.2967C60.3066 24.2967 59.2355 25.6208 59.2355 27.6245C59.2355 29.6282 60.3066 30.9524 61.896 30.9524C63.4853 30.9524 64.5565 29.6108 64.5565 27.6245Z" fill="white"/>
<path d="M75.475 32.66H73.0908L70.5859 29.7851L70.0331 30.3601V32.66H67.9254V22.5544H70.0157V25.2551C70.0157 27.433 69.9812 27.8163 69.9812 27.8163H70.0157L72.4343 25.2551H75.0084L71.8296 28.5132L75.475 32.66Z" fill="white"/>
<path d="M80.8133 25.255V27.3806H80.7614C80.7614 27.3806 80.6233 27.3284 80.1568 27.3284C78.9128 27.3284 78.0491 28.095 78.0491 29.6631V32.6599H75.9414V25.255H78.0316V26.6314H78.0663C78.3772 25.9171 79.1893 25.1853 80.3986 25.1853C80.5886 25.2027 80.6923 25.2027 80.8133 25.255Z" fill="white"/>
<path d="M87.7754 31.1616V27.9905C87.7754 26.2656 86.5835 25.1331 84.4758 25.1331C82.5407 25.1331 81.2279 26.2308 81.2279 27.6943H83.3356C83.3356 27.0671 83.7503 26.6489 84.5275 26.6489C85.2531 26.6489 85.6852 27.0671 85.6852 28.1125L84.3721 28.1996C82.3507 28.3564 81.0205 28.9488 81.0205 30.6041C81.0205 31.5798 81.5733 32.3115 82.4545 32.6252C82.7654 32.7297 83.0938 32.7994 83.4738 32.7994C83.8538 32.7994 84.2512 32.7471 84.614 32.6252C85.1149 32.4509 85.5468 32.1547 85.8233 31.6843H85.8579C85.8579 32.0502 85.9614 32.4509 86.0479 32.6252H88V32.538C87.8273 32.329 87.7754 32.2767 87.7754 31.1616ZM85.6852 29.6109C85.6852 30.6215 85.0977 31.2836 84.2166 31.2836C83.6119 31.2836 83.2147 30.9351 83.2147 30.4298C83.2147 29.9245 83.6293 29.6283 84.3375 29.5587L85.6852 29.4367V29.6109Z" fill="white"/>
</svg>
