<svg width="64" height="64" viewBox="0 0 64 64" fill="none" xmlns="http://www.w3.org/2000/svg">
<path fill-rule="evenodd" clip-rule="evenodd" d="M28.3259 14.7007L17.724 17.4774L14.8022 28.1391L18.4564 31.891L14.7432 35.581L17.493 46.2893L28.049 49.2388L31.763 45.5481L35.4172 49.2993L46.0192 46.5226L48.9402 35.8601L45.2867 32.1097L49 28.4197L46.2502 17.7107L35.6927 14.7612L31.9802 18.4511L28.3259 14.7007ZM21.8199 19.5283L27.4047 18.0649L29.8469 20.5719L26.2853 24.111L21.8199 19.5283ZM34.0799 20.6055L36.5614 18.1399L42.1222 19.6937L37.584 24.2029L34.0799 20.6055ZM18.1481 27.2638L19.6867 21.6484L24.1506 26.2311L20.5896 29.7702L18.1481 27.2631V27.2638ZM39.6822 26.3579L44.2205 21.8474L45.6679 27.4883L43.187 29.9546L39.6822 26.3579ZM28.3842 26.2654L31.9459 22.7263L35.4493 26.3237L31.8883 29.8628L28.3842 26.2654ZM22.6893 31.9246L26.2503 28.3855L29.7558 31.9829L26.1934 35.522L22.6893 31.9246ZM33.988 32.0171L37.549 28.478L41.0531 32.0754L37.4914 35.6145L33.988 32.0171ZM18.0738 36.5117L20.5561 34.0447L24.0595 37.6428L19.5227 42.1512L18.0738 36.5117ZM28.2924 37.6763L31.8541 34.1372L35.3582 37.7346L31.7972 41.2737L28.2924 37.6763ZM39.5904 37.7696L43.152 34.2305L45.5943 36.7369L44.0565 42.3523L39.5904 37.7696ZM21.6209 44.307L26.1585 39.7964L29.664 43.3938L27.1817 45.8608L21.6209 44.307ZM33.8962 43.428L37.4571 39.889L41.9218 44.4724L36.3377 45.9351L33.8962 43.428Z" fill="white"/>
</svg>
